<?xml version="1.0" standalone="no"?>
<!DOCTYPE svg PUBLIC "-//W3C//DTD SVG 20010904//EN"
 "http://www.w3.org/TR/2001/REC-SVG-20010904/DTD/svg10.dtd">
<svg version="1.0" xmlns="http://www.w3.org/2000/svg"
 width="277.000000pt" height="277.000000pt" viewBox="0 0 277.000000 277.000000"
 preserveAspectRatio="xMidYMid meet">
<metadata>
Created by potrace 1.11, written by Peter Selinger 2001-2013
</metadata>
<g transform="translate(0.000000,277.000000) scale(0.100000,-0.100000)"
fill="#000000" stroke="none">
<path d="M990 2363 c-95 -75 -191 -107 -355 -117 -277 -16 -519 -213 -590
-481 -80 -302 63 -619 340 -756 383 -189 845 33 932 446 14 66 14 235 0 290
-10 38 -50 140 -64 162 -14 20 -12 23 19 40 45 24 170 24 217 -1 19 -10 30
-21 24 -25 -15 -10 -52 -97 -70 -164 -12 -42 -17 -98 -16 -172 1 -103 4 -119
48 -255 62 -189 75 -242 75 -315 0 -69 -4 -85 -70 -295 -31 -97 -51 -182 -55
-227 -5 -66 -3 -73 21 -103 23 -27 31 -30 63 -25 45 7 71 37 71 81 0 40 -2 29
16 105 38 161 165 304 314 355 67 22 71 23 140 29 142 13 179 19 242 40 263
89 440 337 439 615 -1 47 -2 92 -4 100 -3 8 -8 34 -12 58 -4 23 -12 45 -16 48
-5 3 -9 13 -9 22 -1 52 -109 209 -193 279 -57 48 -188 114 -262 133 -27 7 -90
13 -140 15 -157 4 -297 -42 -428 -142 -38 -29 -63 -41 -70 -35 -36 27 -132 54
-199 56 -80 3 -139 -9 -208 -43 l-45 -21 -25 20 c-14 11 -46 35 -72 53 -26 17
-48 35 -48 40 0 4 10 11 23 16 12 5 36 21 52 35 17 14 32 26 35 26 15 0 41 64
36 86 -18 71 -86 83 -156 27z m-165 -298 c91 -32 153 -72 223 -145 36 -38 99
-158 108 -204 3 -16 7 -33 10 -37 6 -11 6 -139 -1 -166 -3 -13 -7 -31 -9 -40
-28 -117 -119 -239 -222 -299 -204 -119 -440 -90 -605 75 -271 273 -145 725
231 825 70 18 199 14 265 -9z m1355 10 c128 -27 255 -117 318 -224 93 -159 96
-353 6 -508 -162 -281 -560 -326 -782 -88 -149 158 -179 359 -85 554 97 201
326 313 543 266z m-422 -1060 c-2 -1 -13 -8 -25 -14 -21 -11 -23 -10 -23 19 0
30 0 30 25 14 14 -9 24 -18 23 -19z"/>
</g>
</svg>
